<?xml version="1.0" encoding="utf-8"?>
<!-- Generator: Adobe Illustrator 15.0.0, SVG Export Plug-In . SVG Version: 6.00 Build 0)  -->
<!DOCTYPE svg PUBLIC "-//W3C//DTD SVG 1.1//EN" "http://www.w3.org/Graphics/SVG/1.1/DTD/svg11.dtd">
<svg version="1.1"
	 id="svg2" inkscape:version="0.48.2 r9819" xmlns:cc="http://creativecommons.org/ns#" xmlns:sodipodi="http://sodipodi.sourceforge.net/DTD/sodipodi-0.dtd" xmlns:dc="http://purl.org/dc/elements/1.1/" xmlns:rdf="http://www.w3.org/1999/02/22-rdf-syntax-ns#" sodipodi:docname="lemmlingSandbox.svg" xmlns:inkscape="http://www.inkscape.org/namespaces/inkscape" xmlns:svg="http://www.w3.org/2000/svg"
	 xmlns="http://www.w3.org/2000/svg" xmlns:xlink="http://www.w3.org/1999/xlink" x="0px" y="0px" width="716px" height="350px"
	 viewBox="0 0 716 350" enable-background="new 0 0 716 350" xml:space="preserve">
<g id="layer1" transform="translate(-73.760669,-434.6535)">
	<path id="path3247" fill="#784421" stroke="#000000" stroke-width="4" stroke-linecap="round" stroke-linejoin="round" d="
		M738.249,625.012l-0.2,40.203L355.487,693.76L149.134,564.199l0.2-40.204L355.687,650.02L738.249,625.012z"/>
	<path id="path3245" fill="#784421" stroke="#000000" stroke-width="4" stroke-linecap="round" stroke-linejoin="round" d="
		M149.334,523.995l332.675-19.727l256.24,120.745l-382.562,25.008L149.334,523.995z"/>
	<path id="path3243" fill="#502D16" stroke="#000000" stroke-width="4" stroke-linecap="round" stroke-linejoin="round" d="
		M738.249,625.012l-0.2,40.203L355.487,693.76l0.2-43.739L738.249,625.012z"/>
	<path id="path3239" fill="#502D16" stroke="#000000" stroke-width="4" stroke-linecap="round" stroke-linejoin="round" d="
		M207.138,536.407l27.499,15.5l243.375-17.784l149.714,72.081l26.287-1.719l-175.608-87.326L207.138,536.407z"/>
	<path id="path3222" fill="#784421" stroke="#000000" stroke-width="4" stroke-linecap="round" stroke-linejoin="round" d="
		M478.012,534.123l149.714,72.081l26.287-1.719l-175.608-87.326L478.012,534.123z"/>
	<path id="path3253" fill="#FFDD55" stroke="#000000" stroke-width="4" stroke-linecap="round" stroke-linejoin="round" d="
		M477.998,534.115c-22.368,1.643-44.646-7.563-67.742-3.735c-23.095,3.828-29.308,10.835-57.246,12.876
		c-28.435,2.078-73.178-12.004-118.356,8.64l128.406,72.408l290.938-19.812l-26.281,1.719c0,0-72.013-50.611-97.425-55.024
		C505.089,546.808,477.998,534.115,477.998,534.115z"/>
	<path id="path3256" fill-opacity="0.098" d="M430.481,572.898c8.25,3.5,35.001-6.5,48.001-6.5s21-10,8-15.5s-36-7-45.501,2.5
		C431.481,562.898,422.231,569.398,430.481,572.898z"/>
	<path id="path3258" fill-opacity="0.098" d="M370.112,575.377c-20.933,3.419-25.16,18.657-36.633,16.715
		s-29.157-14.436-20.186-18.614c8.972-4.179,30.99,3.445,43.362-7.598C369.026,554.838,391.045,571.958,370.112,575.377z"/>
	<path id="path3260" fill-opacity="0.098" d="M552.529,578.146c-11.616,0.074-22.188,1.594-26.781,5.75c-10.5,9.5-19,24-40,22.5
		s-44.5-10-44,5c0.095,2.857,2.853,5.188,7.281,7.062l113.469-7.75c24.469-7.005,50.531-14.576,47.875-16.282
		c-0.046-0.029-0.08-0.064-0.125-0.094c-0.012-0.008-0.021-0.024-0.031-0.031c-5.33-3.537-11.596-7.604-18.219-11.781
		c-0.009-0.003-0.021,0.002-0.031,0C584.09,580.352,567.448,578.05,552.529,578.146z"/>
	<g id="g3305" transform="translate(26.152542,-23.273863)">
		<path id="path3314" fill-opacity="0.3922" d="M369.72,598.001c11,4.5,25.25,3.5,27-1.25s16.25-2,16.25-2l3.5-7.75
			c0,0-16.75,3.75-21-0.5s-19.75-1.75-19.75-1.75L369.72,598.001z"/>
		<path id="path3286" fill="#FF00FF" stroke="#000000" stroke-width="4" stroke-linejoin="round" d="M391.682,549.04
			c-5.25-0.542-13.012,18.072-16.035,21.668c-2.796,3.326-7.182-7.888-16.583,2.944c-9.634,11.1-6.487,13.688,1.479,20.94
			c3.347,3.044,17.659,3.556,21.483-1.009c9.793-11.283-2.116-13.724,0.582-16.833c2.699-3.109,19.417-13.985,19.198-18.923
			C401.589,552.89,396.932,549.582,391.682,549.04z"/>
		<path id="path3292" fill-opacity="0.3922" d="M366.822,573.03c-3.359,0.795-10.076,9.723-9.723,11.844
			c0.354,2.121,5.925-1.019,7.955-3.889C367.167,577.998,370.181,572.235,366.822,573.03z"/>
		<path id="path3294" fill-opacity="0.3922" d="M382.456,572.237c1.234,0.705,15.764-13.485,15.91-14.849
			c0.146-1.371-0.497-2.526-1.9-2.203C395.178,555.48,381.273,571.561,382.456,572.237z"/>
	</g>
	<g id="g3300" transform="translate(10.474873,-1.2928935)">
		<path id="path3312" fill-opacity="0.3922" d="M426.965,600.948c9.001-2.75,20.001-4.25,26.751,0.25
			c5.537,3.691,17.354,0.185,17.5-9.25c0.107-7.458-14.5-9.25-14.5-9.25L426.965,600.948z"/>
		<path id="path3271" fill="#00D400" stroke="#000000" stroke-width="4.9095" stroke-linecap="round" stroke-linejoin="round" d="
			M423.467,561.891c-1.106,4.127-3.121,24.816-4.011,28.135c-0.89,3.318,3.8,12.088,10.979,6.812
			c8.604-6.325,21.564-1.894,22.455-5.212c0.89-3.318,7.236-15.488,8.345-19.615s-6.457-9.745-16.881-12.538
			C433.93,556.68,424.573,557.764,423.467,561.891z"/>
		<path id="path3267" fill="#008000" stroke="#000000" stroke-width="4.6722" stroke-linecap="round" stroke-linejoin="round" d="
			M423.467,561.891c-1.111,4.128,6.44,9.742,16.87,12.539c10.43,2.797,19.783,1.717,20.896-2.412
			c0.001-0.002,0.002-0.004,0.002-0.007c1.111-4.128-6.442-9.742-16.871-12.539c-10.43-2.796-19.784-1.717-20.896,2.412
			C423.467,561.887,423.467,561.889,423.467,561.891z"/>
		<path id="path3296" fill-opacity="0.3922" d="M453.443,578.864c-1.72-0.602-8.839-1.237-9.723,5.126
			c-0.908,6.538,3.786,5.96,5.833,4.95C451.666,587.897,455.211,579.482,453.443,578.864z"/>
		<path id="path3310" fill-opacity="0.3922" d="M440.007,562.424c-1.857-2.112-11.111-1.593-12.729,0.177
			c-1.823,1.997,8.736,8.081,10.783,7.071C440.175,568.629,441.953,564.633,440.007,562.424z"/>
	</g>
</g>
<g id="g3117">
	<g id="layer1_1_" transform="translate(-80.482081,-65.234327)">
		<path id="flowRoot1306" fill="#3965B0" d="M394.012,229.989l0.729-0.331c1.003,2.218,1.382,3.989,1.136,5.318
			c-0.231,1.322-0.869,2.22-1.911,2.689c-0.853,0.386-1.82,0.427-2.903,0.123c-1.089-0.317-2.604-1.789-4.54-4.411l-5.441-7.376
			l0.394,16.964l-3.835,1.735l-0.099-23.335c-1.597-2.303-2.993-3.912-4.188-4.824c-1.196-0.913-2.273-1.152-3.234-0.717
			c-0.771,0.349-1.307,0.964-1.61,1.845c-0.295,0.86-0.187,1.944,0.323,3.251l-0.73,0.331c-0.893-2.081-1.24-3.91-1.042-5.488
			c0.192-1.591,0.856-2.645,1.993-3.159c0.731-0.331,1.563-0.328,2.499,0.01c0.942,0.317,1.993,1.127,3.153,2.428
			c1.166,1.281,3.33,4.062,6.492,8.346l4.46,6.02c1.833,2.501,3.28,4.076,4.342,4.729c1.068,0.632,2.05,0.746,2.941,0.341
			C394.455,233.795,394.812,232.299,394.012,229.989"/>
	</g>
</g>
<g id="g3121">
	<g id="layer1_2_" transform="translate(-80.482081,-65.234327)">
		<path id="flowRoot1306_1_" fill="#BE2026" d="M533.039,226.126l1.016,0.213c-0.654,3.113-1.618,5.277-2.895,6.49
			c-1.257,1.219-2.605,1.676-4.054,1.371c-1.186-0.248-2.224-0.951-3.12-2.105c-0.891-1.174-1.34-3.893-1.348-8.153l-0.017-11.979
			l-12.596,18.22l-5.326-1.118l17.788-24.724c0.104-3.663-0.12-6.436-0.667-8.32c-0.546-1.885-1.486-2.966-2.819-3.246
			c-1.07-0.225-2.1,0.012-3.091,0.709c-0.968,0.68-1.687,1.909-2.155,3.682l-1.017-0.213c0.665-2.885,1.705-5.085,3.122-6.597
			c1.422-1.533,2.92-2.134,4.499-1.803c1.014,0.212,1.878,0.857,2.594,1.933c0.738,1.061,1.213,2.725,1.423,4.992
			c0.235,2.25,0.356,6.854,0.367,13.812l0.032,9.791c-0.008,4.051,0.292,6.832,0.897,8.338c0.628,1.489,1.562,2.364,2.803,2.624
			C530.582,230.487,532.103,229.181,533.039,226.126"/>
	</g>
</g>
</svg>
