<?xml version="1.0" encoding="utf-8"?>
<!-- Generator: Adobe Illustrator 15.0.0, SVG Export Plug-In . SVG Version: 6.00 Build 0)  -->
<!DOCTYPE svg PUBLIC "-//W3C//DTD SVG 1.1//EN" "http://www.w3.org/Graphics/SVG/1.1/DTD/svg11.dtd">
<svg version="1.1"
	 id="svg2" inkscape:version="0.48.2 r9819" xmlns:svg="http://www.w3.org/2000/svg" xmlns:inkscape="http://www.inkscape.org/namespaces/inkscape" xmlns:rdf="http://www.w3.org/1999/02/22-rdf-syntax-ns#" xmlns:dc="http://purl.org/dc/elements/1.1/" xmlns:sodipodi="http://sodipodi.sourceforge.net/DTD/sodipodi-0.dtd" xmlns:cc="http://creativecommons.org/ns#" sodipodi:docname="lemmlingSandbox.svg"
	 xmlns="http://www.w3.org/2000/svg" xmlns:xlink="http://www.w3.org/1999/xlink" x="0px" y="0px" width="716px" height="350px"
	 viewBox="0 0 716 350" enable-background="new 0 0 716 350" xml:space="preserve">
<path d="M387.969,169.171c0.016-0.02,0.029-0.038,0.044-0.057c0.162-0.221,0.303-0.456,0.425-0.701
	c0.013-0.025,0.024-0.049,0.037-0.075c0.116-0.244,0.213-0.498,0.29-0.759c0.01-0.03,0.02-0.06,0.026-0.09
	c0.072-0.259,0.126-0.524,0.16-0.792c0.005-0.035,0.009-0.068,0.013-0.104c0.029-0.267,0.04-0.535,0.032-0.803
	c-0.001-0.037-0.002-0.073-0.004-0.11c-0.013-0.267-0.044-0.532-0.093-0.793c-0.009-0.037-0.017-0.073-0.023-0.11
	c-0.055-0.26-0.126-0.515-0.218-0.763c-0.013-0.035-0.027-0.068-0.04-0.103c-0.098-0.247-0.211-0.486-0.345-0.713
	c-0.019-0.03-0.037-0.059-0.057-0.088c-0.141-0.227-0.297-0.442-0.475-0.642c-0.021-0.024-0.044-0.045-0.065-0.069
	c-0.185-0.199-0.387-0.384-0.609-0.549c-0.021-0.016-0.046-0.03-0.067-0.045c-0.232-0.164-0.48-0.31-0.753-0.431
	c-0.021-0.009-0.041-0.015-0.062-0.023c-0.281-0.12-0.582-0.217-0.906-0.283c-0.014-0.002-0.026-0.003-0.039-0.006
	c-0.336-0.065-0.692-0.103-1.073-0.103c-0.253,0-0.491,0.021-0.724,0.05c-0.033,0.004-0.064,0.01-0.098,0.015
	c-0.223,0.032-0.436,0.077-0.64,0.134c-0.018,0.003-0.038,0.002-0.056,0.005c-0.629,0.069-1.185,0.244-1.671,0.495
	c-0.084,0.012-0.171,0.02-0.256,0.029c-0.129-0.008-0.258-0.019-0.393-0.019c-0.587,0-1.119,0.085-1.599,0.235
	c-0.66,0.118-1.319,0.247-1.98,0.36c-1.217,0.207-2.388,1.273-2.988,2.298c-0.677,1.155-0.858,2.562-0.504,3.853
	c0.345,1.25,1.181,2.333,2.298,2.988c1.247,0.73,2.476,0.738,3.854,0.504c0.524-0.089,1.049-0.189,1.572-0.286
	c0.038-0.005,0.08-0.004,0.117-0.009c0.077,0.003,0.15,0.015,0.23,0.015c0.238,0,0.466-0.018,0.687-0.044
	c0.022-0.004,0.047-0.008,0.07-0.011c0.002,0,0.004,0,0.005-0.001c0.163-0.022,0.322-0.049,0.477-0.084c0.001,0,0.002,0,0.002,0
	c0.021-0.005,0.042-0.011,0.062-0.017c0.183-0.045,0.356-0.099,0.524-0.162l0.022-0.009c0,0,0,0,0.001,0
	c0.146-0.055,0.283-0.12,0.42-0.188c0.318-0.017,0.623-0.056,0.909-0.121c0.073-0.013,0.135-0.042,0.205-0.058h0.001
	c0.36-0.034,0.696-0.103,1.013-0.199c0.009-0.003,0.02-0.005,0.027-0.008c0.309-0.096,0.591-0.221,0.854-0.368
	c0.014-0.008,0.028-0.014,0.043-0.022c0.256-0.147,0.489-0.318,0.704-0.507c0.015-0.013,0.03-0.026,0.046-0.04
	C387.615,169.6,387.801,169.393,387.969,169.171z"/>
<g id="layer1" transform="translate(-73.760669,-434.6535)">
	<path id="path3247" fill="#784421" stroke="#000000" stroke-width="4" stroke-linecap="round" stroke-linejoin="round" d="
		M533.634,647.431L736.2,515.407l1.379,40.181L535.113,691.142l-383.235-17.312l-1.374-40.18L533.634,647.431z"/>
	<path id="path3245" fill="#784421" stroke="#000000" stroke-width="4" stroke-linecap="round" stroke-linejoin="round" d="
		M533.634,647.433l-383.132-13.781l252.59-128.209l333.106,9.966L533.634,647.433z"/>
	<path id="path3243" fill="#502D16" stroke="#000000" stroke-width="4" stroke-linecap="round" stroke-linejoin="round" d="
		M533.634,647.433l1.479,43.709l-383.235-17.312l-1.374-40.18L533.634,647.433z"/>
	<path id="path3239" fill="#502D16" stroke="#000000" stroke-width="4" stroke-linecap="round" stroke-linejoin="round" d="
		M407.075,518.224l-172.978,92.435l26.328,0.947l147.537-76.439l243.788,10.641l27.034-16.299L407.075,518.224z"/>
	<path id="path3222" fill="#784421" stroke="#000000" stroke-width="4" stroke-linecap="round" stroke-linejoin="round" d="
		M407.075,518.224l-172.978,92.435l26.328,0.947l147.537-76.439L407.075,518.224z"/>
	<path id="path3253" fill="#FFDD55" stroke="#000000" stroke-width="4" stroke-linecap="round" stroke-linejoin="round" d="
		M356.206,553.758c-25.273,5.156-95.768,57.857-95.768,57.857l-26.32-0.947l291.393,11.271l126.224-76.14
		c-45.762-19.311-90.072-3.923-118.555-5.167c-27.989-1.221-34.404-8.043-57.601-11.19c-23.2-3.152-45.195,6.705-67.604,5.719
		C407.976,535.16,381.27,548.642,356.206,553.758z"/>
	<path id="path3256" fill-opacity="0.098" d="M445.542,553.348c-9.776-9.218-32.722-7.043-45.556-1.164
		c-12.832,5.879-4.54,15.641,8.452,15.259c12.992-0.384,40.03,8.832,48.172,5.09S455.316,562.567,445.542,553.348z"/>
	<path id="path3258" fill-opacity="0.098" d="M530.197,563.353c12.692,10.675,34.478,2.41,43.567,6.322
		c9.09,3.916-8.219,16.922-19.631,19.199c-11.411,2.277-16.084-12.831-37.107-15.634
		C496.003,570.436,517.507,552.678,530.197,563.353z"/>
	<path id="path3260" fill-opacity="0.098" d="M295.477,586.886c-0.011,0.002-0.022-0.003-0.03,0.002
		c-6.5,4.369-12.642,8.619-17.869,12.309c-0.01,0.006-0.018,0.025-0.028,0.032c-0.045,0.029-0.079,0.066-0.125,0.099
		c-2.602,1.783,23.671,8.588,48.334,14.869l113.646,4.422c4.372-2.004,7.06-4.414,7.071-7.273c0.06-15.01-23.181-5.824-44.128-3.709
		c-20.947,2.115-29.871-12.129-40.644-21.316c-4.711-4.018-15.322-5.228-26.939-4.962
		C319.854,581.7,303.282,584.486,295.477,586.886z"/>
</g>
<g id="Layer_2">
</g>
<g id="g3305_1_" transform="translate(26.152542,-23.273863)">
	<path id="path3314" fill-opacity="0.3922" d="M294.976,170.332c11,4.5,25.25,3.5,27-1.25s16.25-2,16.25-2l3.5-7.75
		c0,0-16.75,3.75-21-0.5s-19.75-1.75-19.75-1.75L294.976,170.332z"/>
	<path id="path3286_1_" fill="#FF00FF" stroke="#000000" stroke-width="2" stroke-linejoin="round" d="M316.938,121.371
		c-5.25-0.542-13.014,18.072-16.035,21.668c-2.796,3.325-7.184-7.889-16.583,2.943c-9.634,11.1-6.487,13.688,1.479,20.939
		c3.349,3.045,17.659,3.557,21.483-1.008c9.793-11.283-2.116-13.725,0.582-16.834c2.699-3.108,19.417-13.984,19.198-18.923
		C326.846,125.221,322.188,121.913,316.938,121.371z"/>
	<path id="path3292_1_" fill-opacity="0.3922" d="M292.078,145.361c-3.359,0.795-10.076,9.724-9.723,11.845
		c0.354,2.12,5.925-1.02,7.955-3.89C292.423,150.329,295.437,144.566,292.078,145.361z"/>
	<path id="path3294_1_" fill-opacity="0.3922" d="M307.712,144.568c1.234,0.705,15.766-13.485,15.91-14.849
		c0.146-1.371-0.497-2.526-1.899-2.203C320.434,127.811,306.529,143.892,307.712,144.568z"/>
</g>
<path id="path3312" fill-opacity="0.3922" d="M360.696,165.986c9.001-2.75,20.001-4.25,26.751,0.25
	c5.536,3.69,17.354,0.185,17.5-9.25c0.105-7.459-14.5-9.25-14.5-9.25L360.696,165.986z"/>
<path id="path3271" fill="#00D400" stroke="#000000" stroke-width="2" stroke-linecap="round" stroke-linejoin="round" d="
	M357.198,127.929c-1.106,4.128-3.121,24.816-4.013,28.136c-0.89,3.317,3.802,12.088,10.979,6.812
	c8.604-6.325,21.562-1.894,22.455-5.212c0.89-3.318,7.235-15.488,8.345-19.615c1.11-4.127-6.457-9.744-16.881-12.538
	C367.661,122.718,358.304,123.802,357.198,127.929z"/>
<path id="path3267" fill="#008000" stroke="#000000" stroke-width="2" stroke-linecap="round" stroke-linejoin="round" d="
	M357.198,127.929c-1.111,4.128,6.438,9.742,16.869,12.539c10.431,2.798,19.782,1.718,20.896-2.411
	c0.001-0.003,0.002-0.005,0.002-0.008c1.111-4.128-6.441-9.742-16.871-12.539c-10.43-2.796-19.784-1.717-20.896,2.412
	C357.198,127.925,357.198,127.927,357.198,127.929z"/>
<path id="path3296" fill-opacity="0.3922" d="M387.174,144.902c-1.72-0.603-8.839-1.237-9.723,5.125
	c-0.908,6.539,3.786,5.961,5.833,4.951C385.396,153.936,388.941,145.52,387.174,144.902z"/>
<path id="path3310" fill-opacity="0.3922" d="M372.721,128.478c-1.855-2.112-11.109-1.593-12.729,0.177
	c-1.823,1.997,8.735,8.081,10.783,7.071C372.89,134.683,374.667,130.687,372.721,128.478z"/>
<g id="g3121_2_">
	<g>
		<g>
			<g transform="translate(-80.482081,-65.234327)">
				<path fill="#BE2026" stroke="#000000" stroke-miterlimit="10" d="M4929.518,4199.027l-1.084,0.152
					c0.169,3.371-0.871,5.213-3.12,5.524c-1.32,0.185-2.562-0.351-3.719-1.606c-1.139-1.279-2.433-3.938-3.876-7.966l-3.542-9.719
					c-2.508-6.911-4.279-11.444-5.317-13.597c-1.021-2.178-2.089-3.662-3.201-4.452c-1.095-0.812-2.184-1.146-3.264-0.992
					c-1.683,0.233-2.954,1.368-3.812,3.399c-0.86,2.009-1.104,4.566-0.729,7.673l1.083-0.152c-0.171-1.933,0.1-3.408,0.814-4.431
					c0.734-1.047,1.671-1.651,2.81-1.812c1.424-0.198,2.743,0.542,3.959,2.22c1.218,1.679,2.435,4.353,3.644,8.031l-8.413,29.691
					c0.249-0.125,0.505-0.243,0.776-0.331c0.845-0.274,1.696-0.522,2.546-0.778c0.221-0.066,1.964-0.764,1.212-0.359
					c0.505-0.271,0.998-0.512,1.49-0.731l5.255-19.965l4.312,11.897c1.536,4.232,2.958,6.772,4.26,7.623
					c1.302,0.827,2.584,1.153,3.847,0.975c1.545-0.213,2.718-1.149,3.526-2.812
					C4929.805,4204.852,4929.989,4202.355,4929.518,4199.027z"/>
			</g>
		</g>
	</g>
</g>
</svg>
